# xmcd CD database file
#
# Track frame offsets:
#	150
#	13215
#	23413
#	36293
#	46393
#	61505
#	72483
#	87178
#	99793
#	109633
#	118863
#	135990
#	142913
#	155508
#	167725
#	179238
#	184943
#	197478
#	209350
#
# Disc length: 2981 seconds
#
# Revision: 1
# Processed by: cddbd v1.5.1PL2 Copyright (c) Steve Scherf et al.
# Submitted via: CDex 1.70beta2
#
DISCID=000ba313
DTITLE=Various Artist - Green Green Grass of HOme 19 Country Giants
DYEAR=1900
DGENRE=Country
TTITLE0=Faron Young - There Goes My Everything
TTITLE1=Willie Nelson - The Healing Hands Of Time
TTITLE2=Jim Reeves - How's The World Treating You
TTITLE3=Don Williams - Take My Hand For A While
TTITLE4=Boxcar Willie - The Wayward Wind
TTITLE5=Porter Wagoner - Enough To Make A Grown Man Cry
TTITLE6=Johnny Paycheck - Green Green Gras Of Home
TTITLE7=Johnny Russel - Kaw Liga
TTITLE8=Freddy Fender - But I Do
TTITLE9=Boxcar Willie - Mama Tried
TTITLE10=Carl Perkins - Sweeter Than Candy
TTITLE11=Waylon Jennings - It's So Easy
TTITLE12=Kenny Rogers - Reuben James
TTITLE13=Stonewall Jackson - I Love You Because
TTITLE14=Faron Young - Is It Really Over
TTITLE15=Willie Nelson - The Ghost
TTITLE16=Johnny Russel - All I Have To Offer You Is Me
TTITLE17=Johnny Lee - Ramblin' Rose
TTITLE18=George Jones - A Good Year For The Roses
EXTD=
EXTT0=
EXTT1=
EXTT2=
EXTT3=
EXTT4=
EXTT5=
EXTT6=
EXTT7=
EXTT8=
EXTT9=
EXTT10=
EXTT11=
EXTT12=
EXTT13=
EXTT14=
EXTT15=
EXTT16=
EXTT17=
EXTT18=
PLAYORDER=
